# xmcd
#
# Track frame offsets: 
#        150
#        24752
#        53304
#        82790
#        110120
#        135573
#        161389
#        187720
#        212452
#        241159
#        274782
#
# Disc length: 4004 seconds
#
# Revision: 0
# Processed by: cddbd v1.5.2PL0 Copyright (c) Steve Scherf et al.
# Submitted via: ExactAudioCopy v0.99pb5
#
DISCID=760fa20b
DTITLE=Various Artist - Acid - Mysterons Invade The Jackin' Zone
DYEAR=1900
DGENRE=Acid
TTITLE0=Acid Wash - Hallucinate
TTITLE1=Risqué Rhythm Team - The Jacking Zone
TTITLE2=Armando - 151
TTITLE3=A Black Man, A Black Man And Another Black Man - I Believe
TTITLE4=Phuture Pfantasy Club - Slam
TTITLE5=Mr. Fingers - Can You Feel It
TTITLE6=J.M. Silk - Music Is The Key (Basement Key)
TTITLE7=Pleasure Zone - I Can't Understand
TTITLE8=James "Jack Rabbit" Martin - Rabbit Trax I
TTITLE9=The Children - Freedom (Factory Mix)
TTITLE10=Mr. Fingers - Ecstasy
EXTD=
EXTT0=
EXTT1=
EXTT2=
EXTT3=
EXTT4=
EXTT5=
EXTT6=
EXTT7=
EXTT8=
EXTT9=
EXTT10=
PLAYORDER=
